<svg xmlns="http://www.w3.org/2000/svg" viewBox="78.05 310.32 1268.12 291">
  <defs>
    <style>
      .cls-1 {
        fill: #fff;
        stroke-width: .75px;
      }

      .cls-1, .cls-2 {
        stroke: #000;
        stroke-miterlimit: 10;
      }

      .cls-2 {
        fill: #fffdfd;
      }
    </style>
  </defs>
  <g id="techinmomentum">
    <g>
      <rect class="cls-1" x="1284.27" y="548.99" width="6.74" height="6.9"/>
      <rect class="cls-1" x="1284.27" y="542.08" width="6.74" height="6.91"/>
      <rect class="cls-1" x="1284.27" y="535.18" width="6.74" height="6.9"/>
      <rect class="cls-1" x="1284.27" y="528.27" width="6.74" height="6.91"/>
      <rect class="cls-1" x="1284.27" y="521.37" width="6.74" height="6.9"/>
      <rect class="cls-1" x="1277.53" y="528.27" width="6.74" height="6.91"/>
      <rect class="cls-1" x="1270.79" y="535.18" width="6.74" height="6.9"/>
      <rect class="cls-1" x="1264.05" y="542.08" width="6.74" height="6.91"/>
      <rect class="cls-1" x="1257.31" y="535.18" width="6.74" height="6.9"/>
      <rect class="cls-1" x="1250.57" y="528.27" width="6.74" height="6.91"/>
      <rect class="cls-1" x="1243.83" y="548.99" width="6.74" height="6.9"/>
      <rect class="cls-1" x="1243.83" y="542.08" width="6.74" height="6.91"/>
      <rect class="cls-1" x="1243.83" y="535.18" width="6.74" height="6.9"/>
      <rect class="cls-1" x="1243.83" y="528.27" width="6.74" height="6.91"/>
      <rect class="cls-1" x="1243.83" y="521.37" width="6.74" height="6.9"/>
      <rect class="cls-1" x="1216.87" y="542.08" width="6.74" height="6.91"/>
      <rect class="cls-1" x="1216.87" y="535.18" width="6.74" height="6.9"/>
      <rect class="cls-1" x="1216.87" y="528.27" width="6.74" height="6.91"/>
      <rect class="cls-1" x="1216.87" y="521.37" width="6.74" height="6.9"/>
      <rect class="cls-1" x="1210.13" y="548.99" width="6.74" height="6.9"/>
      <rect class="cls-1" x="1203.39" y="548.99" width="6.74" height="6.9"/>
      <rect class="cls-1" x="1196.65" y="542.08" width="6.74" height="6.91"/>
      <rect class="cls-1" x="1196.65" y="535.18" width="6.74" height="6.9"/>
      <rect class="cls-1" x="1196.65" y="528.27" width="6.74" height="6.91"/>
      <rect class="cls-1" x="1196.65" y="521.37" width="6.74" height="6.9"/>
      <rect class="cls-1" x="1169.69" y="521.37" width="6.74" height="6.9"/>
      <rect class="cls-1" x="1162.95" y="521.37" width="6.74" height="6.9"/>
      <rect class="cls-1" x="1156.21" y="548.99" width="6.74" height="6.9"/>
      <rect class="cls-1" x="1156.21" y="542.08" width="6.74" height="6.91"/>
      <rect class="cls-1" x="1156.21" y="535.18" width="6.74" height="6.9"/>
      <rect class="cls-1" x="1156.21" y="528.27" width="6.74" height="6.91"/>
      <rect class="cls-1" x="1156.21" y="521.37" width="6.74" height="6.9"/>
      <rect class="cls-1" x="1149.47" y="521.37" width="6.74" height="6.9"/>
      <rect class="cls-1" x="1142.73" y="521.37" width="6.74" height="6.9"/>
      <rect class="cls-1" x="1115.77" y="548.99" width="6.74" height="6.9"/>
      <rect class="cls-1" x="1115.77" y="542.08" width="6.74" height="6.91"/>
      <rect class="cls-1" x="1115.77" y="535.18" width="6.74" height="6.9"/>
      <rect class="cls-1" x="1115.77" y="528.27" width="6.74" height="6.91"/>
      <rect class="cls-1" x="1115.77" y="521.37" width="6.74" height="6.9"/>
      <rect class="cls-1" x="1109.03" y="542.08" width="6.74" height="6.91"/>
      <rect class="cls-1" x="1102.29" y="535.18" width="6.74" height="6.9"/>
      <rect class="cls-1" x="1095.55" y="528.27" width="6.74" height="6.91"/>
      <rect class="cls-1" x="1088.81" y="548.99" width="6.74" height="6.9"/>
      <rect class="cls-1" x="1088.81" y="542.08" width="6.74" height="6.91"/>
      <rect class="cls-1" x="1088.81" y="535.18" width="6.74" height="6.9"/>
      <rect class="cls-1" x="1088.81" y="528.27" width="6.74" height="6.91"/>
      <rect class="cls-1" x="1088.81" y="521.37" width="6.74" height="6.9"/>
      <rect class="cls-1" x="1061.85" y="548.99" width="6.74" height="6.9"/>
      <rect class="cls-1" x="1061.85" y="521.37" width="6.74" height="6.9"/>
      <rect class="cls-1" x="1055.11" y="548.99" width="6.74" height="6.9"/>
      <rect class="cls-1" x="1055.11" y="535.18" width="6.74" height="6.9"/>
      <rect class="cls-1" x="1055.11" y="521.37" width="6.74" height="6.9"/>
      <rect class="cls-1" x="1048.37" y="548.99" width="6.74" height="6.9"/>
      <rect class="cls-1" x="1048.37" y="535.18" width="6.74" height="6.9"/>
      <rect class="cls-1" x="1048.37" y="521.37" width="6.74" height="6.9"/>
      <rect class="cls-1" x="1041.63" y="542.08" width="6.74" height="6.91"/>
      <rect class="cls-1" x="1041.63" y="535.18" width="6.74" height="6.9"/>
      <rect class="cls-1" x="1041.63" y="528.27" width="6.74" height="6.91"/>
      <rect class="cls-1" x="1014.67" y="548.99" width="6.74" height="6.9"/>
      <rect class="cls-1" x="1014.67" y="542.08" width="6.74" height="6.91"/>
      <rect class="cls-1" x="1014.67" y="535.18" width="6.74" height="6.9"/>
      <rect class="cls-1" x="1014.67" y="528.27" width="6.74" height="6.91"/>
      <rect class="cls-1" x="1014.67" y="521.37" width="6.74" height="6.9"/>
      <rect class="cls-1" x="1007.93" y="528.27" width="6.74" height="6.91"/>
      <rect class="cls-1" x="1001.19" y="535.18" width="6.74" height="6.9"/>
      <rect class="cls-1" x="994.45" y="542.08" width="6.74" height="6.91"/>
      <rect class="cls-1" x="987.71" y="535.18" width="6.74" height="6.9"/>
      <rect class="cls-1" x="980.97" y="528.27" width="6.74" height="6.91"/>
      <rect class="cls-1" x="974.23" y="548.99" width="6.74" height="6.9"/>
      <rect class="cls-1" x="974.23" y="542.08" width="6.74" height="6.91"/>
      <rect class="cls-1" x="974.23" y="535.18" width="6.74" height="6.9"/>
      <rect class="cls-1" x="974.23" y="528.27" width="6.74" height="6.91"/>
      <rect class="cls-1" x="974.23" y="521.37" width="6.74" height="6.9"/>
      <rect class="cls-1" x="947.27" y="542.08" width="6.74" height="6.91"/>
      <rect class="cls-1" x="947.27" y="535.18" width="6.74" height="6.9"/>
      <rect class="cls-1" x="947.27" y="528.27" width="6.74" height="6.91"/>
      <rect class="cls-1" x="940.53" y="548.99" width="6.74" height="6.9"/>
      <rect class="cls-1" x="940.53" y="521.37" width="6.74" height="6.9"/>
      <rect class="cls-1" x="933.79" y="548.99" width="6.74" height="6.9"/>
      <rect class="cls-1" x="933.79" y="521.37" width="6.74" height="6.9"/>
      <rect class="cls-1" x="927.05" y="542.08" width="6.74" height="6.91"/>
      <rect class="cls-1" x="927.05" y="535.18" width="6.74" height="6.9"/>
      <rect class="cls-1" x="927.05" y="528.27" width="6.74" height="6.91"/>
      <rect class="cls-1" x="900.09" y="548.99" width="6.74" height="6.9"/>
      <rect class="cls-1" x="900.09" y="542.08" width="6.74" height="6.91"/>
      <rect class="cls-1" x="900.09" y="535.18" width="6.74" height="6.9"/>
      <rect class="cls-1" x="900.09" y="528.27" width="6.74" height="6.91"/>
      <rect class="cls-1" x="900.09" y="521.37" width="6.74" height="6.9"/>
      <rect class="cls-1" x="893.35" y="528.27" width="6.74" height="6.91"/>
      <rect class="cls-1" x="886.61" y="535.18" width="6.74" height="6.9"/>
      <rect class="cls-1" x="879.87" y="542.08" width="6.74" height="6.91"/>
      <rect class="cls-1" x="873.13" y="535.18" width="6.74" height="6.9"/>
      <rect class="cls-1" x="866.39" y="528.27" width="6.74" height="6.91"/>
      <rect class="cls-1" x="859.65" y="548.99" width="6.74" height="6.9"/>
      <rect class="cls-1" x="859.65" y="542.08" width="6.74" height="6.91"/>
      <rect class="cls-1" x="859.65" y="535.18" width="6.74" height="6.9"/>
      <rect class="cls-1" x="859.65" y="528.27" width="6.74" height="6.91"/>
      <rect class="cls-1" x="859.65" y="521.37" width="6.74" height="6.9"/>
      <rect class="cls-1" x="792.25" y="548.99" width="6.74" height="6.9"/>
      <rect class="cls-1" x="792.25" y="542.08" width="6.74" height="6.91"/>
      <rect class="cls-1" x="792.25" y="535.18" width="6.74" height="6.9"/>
      <rect class="cls-1" x="792.25" y="528.27" width="6.74" height="6.91"/>
      <rect class="cls-1" x="792.25" y="521.37" width="6.74" height="6.9"/>
      <rect class="cls-1" x="785.51" y="542.08" width="6.74" height="6.91"/>
      <rect class="cls-1" x="778.77" y="535.18" width="6.74" height="6.9"/>
      <rect class="cls-1" x="772.03" y="528.27" width="6.74" height="6.91"/>
      <rect class="cls-1" x="765.29" y="548.99" width="6.74" height="6.9"/>
      <rect class="cls-1" x="765.29" y="542.08" width="6.74" height="6.91"/>
      <rect class="cls-1" x="765.29" y="535.18" width="6.74" height="6.9"/>
      <rect class="cls-1" x="765.29" y="528.27" width="6.74" height="6.91"/>
      <rect class="cls-1" x="765.29" y="521.37" width="6.74" height="6.9"/>
      <rect class="cls-1" x="738.33" y="548.99" width="6.74" height="6.9"/>
      <rect class="cls-1" x="738.33" y="542.08" width="6.74" height="6.91"/>
      <rect class="cls-1" x="738.33" y="535.18" width="6.74" height="6.9"/>
      <rect class="cls-1" x="738.33" y="528.27" width="6.74" height="6.91"/>
      <rect class="cls-1" x="738.33" y="521.37" width="6.74" height="6.9"/>
      <rect class="cls-1" x="670.93" y="548.99" width="6.74" height="6.9"/>
      <rect class="cls-1" x="670.93" y="542.08" width="6.74" height="6.91"/>
      <rect class="cls-1" x="670.93" y="535.18" width="6.74" height="6.9"/>
      <rect class="cls-1" x="670.93" y="528.27" width="6.74" height="6.91"/>
      <rect class="cls-1" x="670.93" y="521.37" width="6.74" height="6.9"/>
      <rect class="cls-1" x="664.19" y="535.18" width="6.74" height="6.9"/>
      <rect class="cls-1" x="657.45" y="535.18" width="6.74" height="6.9"/>
      <rect class="cls-1" x="650.71" y="548.99" width="6.74" height="6.9"/>
      <rect class="cls-1" x="650.71" y="542.08" width="6.74" height="6.91"/>
      <rect class="cls-1" x="650.71" y="535.18" width="6.74" height="6.9"/>
      <rect class="cls-1" x="650.71" y="528.27" width="6.74" height="6.91"/>
      <rect class="cls-1" x="650.71" y="521.37" width="6.74" height="6.9"/>
      <rect class="cls-1" x="623.75" y="548.99" width="6.74" height="6.9"/>
      <rect class="cls-1" x="623.75" y="521.37" width="6.74" height="6.9"/>
      <rect class="cls-1" x="617.01" y="548.99" width="6.74" height="6.9"/>
      <rect class="cls-1" x="617.01" y="521.37" width="6.74" height="6.9"/>
      <rect class="cls-1" x="610.27" y="548.99" width="6.74" height="6.9"/>
      <rect class="cls-1" x="610.27" y="521.37" width="6.74" height="6.9"/>
      <rect class="cls-1" x="603.53" y="542.08" width="6.74" height="6.91"/>
      <rect class="cls-1" x="603.53" y="535.18" width="6.74" height="6.9"/>
      <rect class="cls-1" x="603.53" y="528.27" width="6.74" height="6.91"/>
      <rect class="cls-1" x="576.57" y="548.99" width="6.74" height="6.9"/>
      <rect class="cls-1" x="576.57" y="521.37" width="6.74" height="6.9"/>
      <rect class="cls-1" x="569.83" y="548.99" width="6.74" height="6.9"/>
      <rect class="cls-1" x="569.83" y="535.18" width="6.74" height="6.9"/>
      <rect class="cls-1" x="569.83" y="521.37" width="6.74" height="6.9"/>
      <rect class="cls-1" x="563.09" y="548.99" width="6.74" height="6.9"/>
      <rect class="cls-1" x="563.09" y="535.18" width="6.74" height="6.9"/>
      <rect class="cls-1" x="563.09" y="521.37" width="6.74" height="6.9"/>
      <rect class="cls-1" x="556.35" y="542.08" width="6.74" height="6.91"/>
      <rect class="cls-1" x="556.35" y="535.18" width="6.74" height="6.9"/>
      <rect class="cls-1" x="556.35" y="528.27" width="6.74" height="6.91"/>
      <rect class="cls-1" x="529.39" y="521.37" width="6.74" height="6.9"/>
      <rect class="cls-1" x="522.65" y="521.37" width="6.74" height="6.9"/>
      <rect class="cls-1" x="515.91" y="548.99" width="6.74" height="6.9"/>
      <rect class="cls-1" x="515.91" y="542.08" width="6.74" height="6.91"/>
      <rect class="cls-1" x="515.91" y="535.18" width="6.74" height="6.9"/>
      <rect class="cls-1" x="515.91" y="528.27" width="6.74" height="6.91"/>
      <rect class="cls-1" x="515.91" y="521.37" width="6.74" height="6.9"/>
      <rect class="cls-1" x="509.17" y="521.37" width="6.74" height="6.9"/>
      <rect class="cls-1" x="502.43" y="521.37" width="6.74" height="6.9"/>
    </g>
  </g>
  <g id="solid-1h-cut_copy" data-name="solid-1h-cut copy">
    <g>
      <rect class="cls-2" x="1332.19" y="448.92" width="13.48" height="13.8"/>
      <rect class="cls-2" x="1332.19" y="435.11" width="13.48" height="13.81"/>
      <rect class="cls-2" x="1332.19" y="366.06" width="13.48" height="13.81"/>
      <rect class="cls-2" x="1332.19" y="352.25" width="13.48" height="13.81"/>
      <rect class="cls-2" x="1318.71" y="448.92" width="13.48" height="13.8"/>
      <rect class="cls-2" x="1318.71" y="435.11" width="13.48" height="13.81"/>
      <rect class="cls-2" x="1318.71" y="421.3" width="13.48" height="13.81"/>
      <rect class="cls-2" x="1318.71" y="379.87" width="13.48" height="13.81"/>
      <rect class="cls-2" x="1318.71" y="366.06" width="13.48" height="13.81"/>
      <rect class="cls-2" x="1318.71" y="352.25" width="13.48" height="13.81"/>
      <rect class="cls-2" x="1305.23" y="421.3" width="13.48" height="13.81"/>
      <rect class="cls-2" x="1305.23" y="407.49" width="13.48" height="13.81"/>
      <rect class="cls-2" x="1305.23" y="393.68" width="13.48" height="13.81"/>
      <rect class="cls-2" x="1305.23" y="379.87" width="13.48" height="13.81"/>
      <rect class="cls-2" x="1291.75" y="407.49" width="13.48" height="13.81"/>
      <rect class="cls-2" x="1291.75" y="393.68" width="13.48" height="13.81"/>
      <rect class="cls-2" x="1278.27" y="407.49" width="13.48" height="13.81"/>
      <rect class="cls-2" x="1278.27" y="393.68" width="13.48" height="13.81"/>
      <rect class="cls-2" x="1264.79" y="421.3" width="13.48" height="13.81"/>
      <rect class="cls-2" x="1264.79" y="407.49" width="13.48" height="13.81"/>
      <rect class="cls-2" x="1264.79" y="393.68" width="13.48" height="13.81"/>
      <rect class="cls-2" x="1264.79" y="379.87" width="13.48" height="13.81"/>
      <rect class="cls-2" x="1251.31" y="448.92" width="13.48" height="13.8"/>
      <rect class="cls-2" x="1251.31" y="435.11" width="13.48" height="13.81"/>
      <rect class="cls-2" x="1251.31" y="421.3" width="13.48" height="13.81"/>
      <rect class="cls-2" x="1251.31" y="379.87" width="13.48" height="13.81"/>
      <rect class="cls-2" x="1251.31" y="366.06" width="13.48" height="13.81"/>
      <rect class="cls-2" x="1251.31" y="352.25" width="13.48" height="13.81"/>
      <rect class="cls-2" x="1237.83" y="448.92" width="13.48" height="13.8"/>
      <rect class="cls-2" x="1237.83" y="435.11" width="13.48" height="13.81"/>
      <rect class="cls-2" x="1237.83" y="366.06" width="13.48" height="13.81"/>
      <rect class="cls-2" x="1237.83" y="352.25" width="13.48" height="13.81"/>
      <rect class="cls-2" x="1197.39" y="435.11" width="13.48" height="13.81"/>
      <rect class="cls-2" x="1197.39" y="421.3" width="13.48" height="13.81"/>
      <rect class="cls-2" x="1197.39" y="407.49" width="13.48" height="13.81"/>
      <rect class="cls-2" x="1197.39" y="393.68" width="13.48" height="13.81"/>
      <rect class="cls-2" x="1197.39" y="379.87" width="13.48" height="13.81"/>
      <rect class="cls-2" x="1197.39" y="366.06" width="13.48" height="13.81"/>
      <rect class="cls-2" x="1197.39" y="352.25" width="13.48" height="13.81"/>
      <rect class="cls-2" x="1183.91" y="448.92" width="13.48" height="13.8"/>
      <rect class="cls-2" x="1183.91" y="435.11" width="13.48" height="13.81"/>
      <rect class="cls-2" x="1183.91" y="421.3" width="13.48" height="13.81"/>
      <rect class="cls-2" x="1183.91" y="407.49" width="13.48" height="13.81"/>
      <rect class="cls-2" x="1183.91" y="393.68" width="13.48" height="13.81"/>
      <rect class="cls-2" x="1183.91" y="379.87" width="13.48" height="13.81"/>
      <rect class="cls-2" x="1183.91" y="366.06" width="13.48" height="13.81"/>
      <rect class="cls-2" x="1170.43" y="407.49" width="13.48" height="13.81"/>
      <rect class="cls-2" x="1170.43" y="393.68" width="13.48" height="13.81"/>
      <rect class="cls-2" x="1156.95" y="407.49" width="13.48" height="13.81"/>
      <rect class="cls-2" x="1156.95" y="393.68" width="13.48" height="13.81"/>
      <rect class="cls-2" x="1143.47" y="407.49" width="13.48" height="13.81"/>
      <rect class="cls-2" x="1143.47" y="393.68" width="13.48" height="13.81"/>
      <rect class="cls-2" x="1129.99" y="407.49" width="13.48" height="13.81"/>
      <rect class="cls-2" x="1129.99" y="393.68" width="13.48" height="13.81"/>
      <rect class="cls-2" x="1116.51" y="448.92" width="13.48" height="13.8"/>
      <rect class="cls-2" x="1116.51" y="435.11" width="13.48" height="13.81"/>
      <rect class="cls-2" x="1116.51" y="421.3" width="13.48" height="13.81"/>
      <rect class="cls-2" x="1116.51" y="407.49" width="13.48" height="13.81"/>
      <rect class="cls-2" x="1116.51" y="393.68" width="13.48" height="13.81"/>
      <rect class="cls-2" x="1116.51" y="379.87" width="13.48" height="13.81"/>
      <rect class="cls-2" x="1116.51" y="366.06" width="13.48" height="13.81"/>
      <rect class="cls-2" x="1103.03" y="435.11" width="13.48" height="13.81"/>
      <rect class="cls-2" x="1103.03" y="421.3" width="13.48" height="13.81"/>
      <rect class="cls-2" x="1103.03" y="407.49" width="13.48" height="13.81"/>
      <rect class="cls-2" x="1103.03" y="393.68" width="13.48" height="13.81"/>
      <rect class="cls-2" x="1103.03" y="379.87" width="13.48" height="13.81"/>
      <rect class="cls-2" x="1103.03" y="366.06" width="13.48" height="13.81"/>
      <rect class="cls-2" x="1103.03" y="352.25" width="13.48" height="13.81"/>
      <rect class="cls-2" x="1062.59" y="448.92" width="13.48" height="13.8"/>
      <rect class="cls-2" x="1062.59" y="435.11" width="13.48" height="13.81"/>
      <rect class="cls-2" x="1062.59" y="366.06" width="13.48" height="13.81"/>
      <rect class="cls-2" x="1062.59" y="352.25" width="13.48" height="13.81"/>
      <rect class="cls-2" x="1049.11" y="448.92" width="13.48" height="13.8"/>
      <rect class="cls-2" x="1049.11" y="435.11" width="13.48" height="13.81"/>
      <rect class="cls-2" x="1049.11" y="366.06" width="13.48" height="13.81"/>
      <rect class="cls-2" x="1049.11" y="352.25" width="13.48" height="13.81"/>
      <rect class="cls-2" x="1035.63" y="448.92" width="13.48" height="13.8"/>
      <rect class="cls-2" x="1035.63" y="435.11" width="13.48" height="13.81"/>
      <rect class="cls-2" x="1035.63" y="366.06" width="13.48" height="13.81"/>
      <rect class="cls-2" x="1035.63" y="352.25" width="13.48" height="13.81"/>
      <rect class="cls-2" x="1022.15" y="448.92" width="13.48" height="13.8"/>
      <rect class="cls-2" x="1022.15" y="435.11" width="13.48" height="13.81"/>
      <rect class="cls-2" x="1022.15" y="366.06" width="13.48" height="13.81"/>
      <rect class="cls-2" x="1022.15" y="352.25" width="13.48" height="13.81"/>
      <rect class="cls-2" x="1008.67" y="448.92" width="13.48" height="13.8"/>
      <rect class="cls-2" x="1008.67" y="435.11" width="13.48" height="13.81"/>
      <rect class="cls-2" x="1008.67" y="366.06" width="13.48" height="13.81"/>
      <rect class="cls-2" x="1008.67" y="352.25" width="13.48" height="13.81"/>
      <rect class="cls-2" x="995.19" y="448.92" width="13.48" height="13.8"/>
      <rect class="cls-2" x="995.19" y="435.11" width="13.48" height="13.81"/>
      <rect class="cls-2" x="995.19" y="366.06" width="13.48" height="13.81"/>
      <rect class="cls-2" x="995.19" y="352.25" width="13.48" height="13.81"/>
      <rect class="cls-2" x="981.71" y="448.92" width="13.48" height="13.8"/>
      <rect class="cls-2" x="981.71" y="435.11" width="13.48" height="13.81"/>
      <rect class="cls-2" x="981.71" y="421.3" width="13.48" height="13.81"/>
      <rect class="cls-2" x="981.71" y="407.49" width="13.48" height="13.81"/>
      <rect class="cls-2" x="981.71" y="393.68" width="13.48" height="13.81"/>
      <rect class="cls-2" x="981.71" y="379.87" width="13.48" height="13.81"/>
      <rect class="cls-2" x="981.71" y="366.06" width="13.48" height="13.81"/>
      <rect class="cls-2" x="981.71" y="352.25" width="13.48" height="13.81"/>
      <rect class="cls-2" x="968.23" y="435.11" width="13.48" height="13.81"/>
      <rect class="cls-2" x="968.23" y="421.3" width="13.48" height="13.81"/>
      <rect class="cls-2" x="968.23" y="407.49" width="13.48" height="13.81"/>
      <rect class="cls-2" x="968.23" y="393.68" width="13.48" height="13.81"/>
      <rect class="cls-2" x="968.23" y="379.87" width="13.48" height="13.81"/>
      <rect class="cls-2" x="968.23" y="366.06" width="13.48" height="13.81"/>
      <rect class="cls-2" x="927.79" y="448.92" width="13.48" height="13.8"/>
      <rect class="cls-2" x="927.79" y="435.11" width="13.48" height="13.81"/>
      <rect class="cls-2" x="927.79" y="366.06" width="13.48" height="13.81"/>
      <rect class="cls-2" x="927.79" y="352.25" width="13.48" height="13.81"/>
      <rect class="cls-2" x="914.31" y="448.92" width="13.48" height="13.8"/>
      <rect class="cls-2" x="914.31" y="435.11" width="13.48" height="13.81"/>
      <rect class="cls-2" x="914.31" y="366.06" width="13.48" height="13.81"/>
      <rect class="cls-2" x="914.31" y="352.25" width="13.48" height="13.81"/>
      <rect class="cls-2" x="900.83" y="448.92" width="13.48" height="13.8"/>
      <rect class="cls-2" x="900.83" y="435.11" width="13.48" height="13.81"/>
      <rect class="cls-2" x="900.83" y="407.49" width="13.48" height="13.81"/>
      <rect class="cls-2" x="900.83" y="393.68" width="13.48" height="13.81"/>
      <rect class="cls-2" x="900.83" y="366.06" width="13.48" height="13.81"/>
      <rect class="cls-2" x="900.83" y="352.25" width="13.48" height="13.81"/>
      <rect class="cls-2" x="887.35" y="448.92" width="13.48" height="13.8"/>
      <rect class="cls-2" x="887.35" y="435.11" width="13.48" height="13.81"/>
      <rect class="cls-2" x="887.35" y="407.49" width="13.48" height="13.81"/>
      <rect class="cls-2" x="887.35" y="393.68" width="13.48" height="13.81"/>
      <rect class="cls-2" x="887.35" y="366.06" width="13.48" height="13.81"/>
      <rect class="cls-2" x="887.35" y="352.25" width="13.48" height="13.81"/>
      <rect class="cls-2" x="873.87" y="448.92" width="13.48" height="13.8"/>
      <rect class="cls-2" x="873.87" y="435.11" width="13.48" height="13.81"/>
      <rect class="cls-2" x="873.87" y="407.49" width="13.48" height="13.81"/>
      <rect class="cls-2" x="873.87" y="393.68" width="13.48" height="13.81"/>
      <rect class="cls-2" x="873.87" y="366.06" width="13.48" height="13.81"/>
      <rect class="cls-2" x="873.87" y="352.25" width="13.48" height="13.81"/>
      <rect class="cls-2" x="860.39" y="448.92" width="13.48" height="13.8"/>
      <rect class="cls-2" x="860.39" y="435.11" width="13.48" height="13.81"/>
      <rect class="cls-2" x="860.39" y="407.49" width="13.48" height="13.81"/>
      <rect class="cls-2" x="860.39" y="393.68" width="13.48" height="13.81"/>
      <rect class="cls-2" x="860.39" y="366.06" width="13.48" height="13.81"/>
      <rect class="cls-2" x="860.39" y="352.25" width="13.48" height="13.81"/>
      <rect class="cls-2" x="846.91" y="448.92" width="13.48" height="13.8"/>
      <rect class="cls-2" x="846.91" y="435.11" width="13.48" height="13.81"/>
      <rect class="cls-2" x="846.91" y="421.3" width="13.48" height="13.81"/>
      <rect class="cls-2" x="846.91" y="407.49" width="13.48" height="13.81"/>
      <rect class="cls-2" x="846.91" y="393.68" width="13.48" height="13.81"/>
      <rect class="cls-2" x="846.91" y="379.87" width="13.48" height="13.81"/>
      <rect class="cls-2" x="846.91" y="366.06" width="13.48" height="13.81"/>
      <rect class="cls-2" x="846.91" y="352.25" width="13.48" height="13.81"/>
      <rect class="cls-2" x="833.43" y="435.11" width="13.48" height="13.81"/>
      <rect class="cls-2" x="833.43" y="421.3" width="13.48" height="13.81"/>
      <rect class="cls-2" x="833.43" y="407.49" width="13.48" height="13.81"/>
      <rect class="cls-2" x="833.43" y="393.68" width="13.48" height="13.81"/>
      <rect class="cls-2" x="833.43" y="379.87" width="13.48" height="13.81"/>
      <rect class="cls-2" x="833.43" y="366.06" width="13.48" height="13.81"/>
      <rect class="cls-2" x="792.99" y="366.06" width="13.48" height="13.81"/>
      <rect class="cls-2" x="792.99" y="352.25" width="13.48" height="13.81"/>
      <rect class="cls-2" x="779.51" y="366.06" width="13.48" height="13.81"/>
      <rect class="cls-2" x="779.51" y="352.25" width="13.48" height="13.81"/>
      <rect class="cls-2" x="766.03" y="366.06" width="13.48" height="13.81"/>
      <rect class="cls-2" x="766.03" y="352.25" width="13.48" height="13.81"/>
      <rect class="cls-2" x="752.55" y="448.92" width="13.48" height="13.8"/>
      <rect class="cls-2" x="752.55" y="435.11" width="13.48" height="13.81"/>
      <rect class="cls-2" x="752.55" y="421.3" width="13.48" height="13.81"/>
      <rect class="cls-2" x="752.55" y="407.49" width="13.48" height="13.81"/>
      <rect class="cls-2" x="752.55" y="393.68" width="13.48" height="13.81"/>
      <rect class="cls-2" x="752.55" y="379.87" width="13.48" height="13.81"/>
      <rect class="cls-2" x="752.55" y="366.06" width="13.48" height="13.81"/>
      <rect class="cls-2" x="752.55" y="352.25" width="13.48" height="13.81"/>
      <rect class="cls-2" x="739.07" y="448.92" width="13.48" height="13.8"/>
      <rect class="cls-2" x="739.07" y="435.11" width="13.48" height="13.81"/>
      <rect class="cls-2" x="739.07" y="421.3" width="13.48" height="13.81"/>
      <rect class="cls-2" x="739.07" y="407.49" width="13.48" height="13.81"/>
      <rect class="cls-2" x="739.07" y="393.68" width="13.48" height="13.81"/>
      <rect class="cls-2" x="739.07" y="379.87" width="13.48" height="13.81"/>
      <rect class="cls-2" x="739.07" y="366.06" width="13.48" height="13.81"/>
      <rect class="cls-2" x="739.07" y="352.25" width="13.48" height="13.81"/>
      <rect class="cls-2" x="725.59" y="366.06" width="13.48" height="13.81"/>
      <rect class="cls-2" x="725.59" y="352.25" width="13.48" height="13.81"/>
      <rect class="cls-2" x="712.11" y="366.06" width="13.48" height="13.81"/>
      <rect class="cls-2" x="712.11" y="352.25" width="13.48" height="13.81"/>
      <rect class="cls-2" x="698.63" y="366.06" width="13.48" height="13.81"/>
      <rect class="cls-2" x="698.63" y="352.25" width="13.48" height="13.81"/>
      <rect class="cls-2" x="658.19" y="448.92" width="13.48" height="13.8"/>
      <rect class="cls-2" x="658.19" y="407.49" width="13.48" height="13.81"/>
      <rect class="cls-2" x="658.19" y="393.68" width="13.48" height="13.81"/>
      <rect class="cls-2" x="658.19" y="379.87" width="13.48" height="13.81"/>
      <rect class="cls-2" x="658.19" y="366.06" width="13.48" height="13.81"/>
      <rect class="cls-2" x="644.71" y="448.92" width="13.48" height="13.8"/>
      <rect class="cls-2" x="644.71" y="435.11" width="13.48" height="13.81"/>
      <rect class="cls-2" x="644.71" y="407.49" width="13.48" height="13.81"/>
      <rect class="cls-2" x="644.71" y="393.68" width="13.48" height="13.81"/>
      <rect class="cls-2" x="644.71" y="379.87" width="13.48" height="13.81"/>
      <rect class="cls-2" x="644.71" y="366.06" width="13.48" height="13.81"/>
      <rect class="cls-2" x="644.71" y="352.25" width="13.48" height="13.81"/>
      <rect class="cls-2" x="631.23" y="435.11" width="13.48" height="13.81"/>
      <rect class="cls-2" x="631.23" y="421.3" width="13.48" height="13.81"/>
      <rect class="cls-2" x="631.23" y="407.49" width="13.48" height="13.81"/>
      <rect class="cls-2" x="631.23" y="366.06" width="13.48" height="13.81"/>
      <rect class="cls-2" x="631.23" y="352.25" width="13.48" height="13.81"/>
      <rect class="cls-2" x="617.75" y="421.3" width="13.48" height="13.81"/>
      <rect class="cls-2" x="617.75" y="407.49" width="13.48" height="13.81"/>
      <rect class="cls-2" x="617.75" y="366.06" width="13.48" height="13.81"/>
      <rect class="cls-2" x="617.75" y="352.25" width="13.48" height="13.81"/>
      <rect class="cls-2" x="604.27" y="407.49" width="13.48" height="13.81"/>
      <rect class="cls-2" x="604.27" y="366.06" width="13.48" height="13.81"/>
      <rect class="cls-2" x="604.27" y="352.25" width="13.48" height="13.81"/>
      <rect class="cls-2" x="590.79" y="407.49" width="13.48" height="13.81"/>
      <rect class="cls-2" x="590.79" y="366.06" width="13.48" height="13.81"/>
      <rect class="cls-2" x="590.79" y="352.25" width="13.48" height="13.81"/>
      <rect class="cls-2" x="577.31" y="448.92" width="13.48" height="13.8"/>
      <rect class="cls-2" x="577.31" y="435.11" width="13.48" height="13.81"/>
      <rect class="cls-2" x="577.31" y="421.3" width="13.48" height="13.81"/>
      <rect class="cls-2" x="577.31" y="407.49" width="13.48" height="13.81"/>
      <rect class="cls-2" x="577.31" y="393.68" width="13.48" height="13.81"/>
      <rect class="cls-2" x="577.31" y="379.87" width="13.48" height="13.81"/>
      <rect class="cls-2" x="577.31" y="366.06" width="13.48" height="13.81"/>
      <rect class="cls-2" x="577.31" y="352.25" width="13.48" height="13.81"/>
      <rect class="cls-2" x="563.83" y="448.92" width="13.48" height="13.8"/>
      <rect class="cls-2" x="563.83" y="435.11" width="13.48" height="13.81"/>
      <rect class="cls-2" x="563.83" y="421.3" width="13.48" height="13.81"/>
      <rect class="cls-2" x="563.83" y="407.49" width="13.48" height="13.81"/>
      <rect class="cls-2" x="563.83" y="393.68" width="13.48" height="13.81"/>
      <rect class="cls-2" x="563.83" y="379.87" width="13.48" height="13.81"/>
      <rect class="cls-2" x="563.83" y="366.06" width="13.48" height="13.81"/>
      <rect class="cls-2" x="563.83" y="352.25" width="13.48" height="13.81"/>
      <rect class="cls-2" x="523.39" y="448.92" width="13.48" height="13.8"/>
      <rect class="cls-2" x="523.39" y="435.11" width="13.48" height="13.81"/>
      <rect class="cls-2" x="523.39" y="407.49" width="13.48" height="13.81"/>
      <rect class="cls-2" x="523.39" y="393.68" width="13.48" height="13.81"/>
      <rect class="cls-2" x="523.39" y="366.06" width="13.48" height="13.81"/>
      <rect class="cls-2" x="523.39" y="352.25" width="13.48" height="13.81"/>
      <rect class="cls-2" x="509.91" y="448.92" width="13.48" height="13.8"/>
      <rect class="cls-2" x="509.91" y="435.11" width="13.48" height="13.81"/>
      <rect class="cls-2" x="509.91" y="407.49" width="13.48" height="13.81"/>
      <rect class="cls-2" x="509.91" y="393.68" width="13.48" height="13.81"/>
      <rect class="cls-2" x="509.91" y="366.06" width="13.48" height="13.81"/>
      <rect class="cls-2" x="509.91" y="352.25" width="13.48" height="13.81"/>
      <rect class="cls-2" x="496.43" y="448.92" width="13.48" height="13.8"/>
      <rect class="cls-2" x="496.43" y="435.11" width="13.48" height="13.81"/>
      <rect class="cls-2" x="496.43" y="407.49" width="13.48" height="13.81"/>
      <rect class="cls-2" x="496.43" y="393.68" width="13.48" height="13.81"/>
      <rect class="cls-2" x="496.43" y="366.06" width="13.48" height="13.81"/>
      <rect class="cls-2" x="496.43" y="352.25" width="13.48" height="13.81"/>
      <rect class="cls-2" x="482.95" y="448.92" width="13.48" height="13.8"/>
      <rect class="cls-2" x="482.95" y="435.11" width="13.48" height="13.81"/>
      <rect class="cls-2" x="482.95" y="407.49" width="13.48" height="13.81"/>
      <rect class="cls-2" x="482.95" y="393.68" width="13.48" height="13.81"/>
      <rect class="cls-2" x="482.95" y="366.06" width="13.48" height="13.81"/>
      <rect class="cls-2" x="482.95" y="352.25" width="13.48" height="13.81"/>
      <rect class="cls-2" x="469.47" y="448.92" width="13.48" height="13.8"/>
      <rect class="cls-2" x="469.47" y="435.11" width="13.48" height="13.81"/>
      <rect class="cls-2" x="469.47" y="407.49" width="13.48" height="13.81"/>
      <rect class="cls-2" x="469.47" y="393.68" width="13.48" height="13.81"/>
      <rect class="cls-2" x="469.47" y="366.06" width="13.48" height="13.81"/>
      <rect class="cls-2" x="469.47" y="352.25" width="13.48" height="13.81"/>
      <rect class="cls-2" x="455.99" y="448.92" width="13.48" height="13.8"/>
      <rect class="cls-2" x="455.99" y="435.11" width="13.48" height="13.81"/>
      <rect class="cls-2" x="455.99" y="421.3" width="13.48" height="13.81"/>
      <rect class="cls-2" x="455.99" y="407.49" width="13.48" height="13.81"/>
      <rect class="cls-2" x="455.99" y="393.68" width="13.48" height="13.81"/>
      <rect class="cls-2" x="455.99" y="379.87" width="13.48" height="13.81"/>
      <rect class="cls-2" x="455.99" y="366.06" width="13.48" height="13.81"/>
      <rect class="cls-2" x="455.99" y="352.25" width="13.48" height="13.81"/>
      <rect class="cls-2" x="442.51" y="435.11" width="13.48" height="13.81"/>
      <rect class="cls-2" x="442.51" y="421.3" width="13.48" height="13.81"/>
      <rect class="cls-2" x="442.51" y="407.49" width="13.48" height="13.81"/>
      <rect class="cls-2" x="442.51" y="393.68" width="13.48" height="13.81"/>
      <rect class="cls-2" x="442.51" y="379.87" width="13.48" height="13.81"/>
      <rect class="cls-2" x="442.51" y="366.06" width="13.48" height="13.81"/>
      <rect class="cls-2" x="402.07" y="573.2" width="13.48" height="13.81"/>
      <rect class="cls-2" x="402.07" y="559.39" width="13.48" height="13.81"/>
      <rect class="cls-2" x="402.07" y="545.58" width="13.48" height="13.81"/>
      <rect class="cls-2" x="402.07" y="531.77" width="13.48" height="13.81"/>
      <rect class="cls-2" x="402.07" y="517.96" width="13.48" height="13.81"/>
      <rect class="cls-2" x="402.07" y="504.15" width="13.48" height="13.81"/>
      <rect class="cls-2" x="402.07" y="490.34" width="13.48" height="13.81"/>
      <rect class="cls-2" x="388.59" y="559.39" width="13.48" height="13.81"/>
      <rect class="cls-2" x="388.59" y="545.58" width="13.48" height="13.81"/>
      <rect class="cls-2" x="388.59" y="531.77" width="13.48" height="13.81"/>
      <rect class="cls-2" x="388.59" y="517.96" width="13.48" height="13.81"/>
      <rect class="cls-2" x="388.59" y="504.15" width="13.48" height="13.81"/>
      <rect class="cls-2" x="388.59" y="490.34" width="13.48" height="13.81"/>
      <rect class="cls-2" x="388.59" y="476.53" width="13.48" height="13.81"/>
      <rect class="cls-2" x="388.59" y="462.72" width="13.48" height="13.81"/>
      <rect class="cls-2" x="388.59" y="310.82" width="13.48" height="13.81"/>
      <rect class="cls-2" x="375.11" y="531.77" width="13.48" height="13.81"/>
      <rect class="cls-2" x="375.11" y="517.96" width="13.48" height="13.81"/>
      <rect class="cls-2" x="375.11" y="504.15" width="13.48" height="13.81"/>
      <rect class="cls-2" x="375.11" y="490.34" width="13.48" height="13.81"/>
      <rect class="cls-2" x="375.11" y="476.53" width="13.48" height="13.81"/>
      <rect class="cls-2" x="375.11" y="462.72" width="13.48" height="13.81"/>
      <rect class="cls-2" x="375.11" y="448.92" width="13.48" height="13.8"/>
      <rect class="cls-2" x="375.11" y="435.11" width="13.48" height="13.81"/>
      <rect class="cls-2" x="375.11" y="324.63" width="13.48" height="13.81"/>
      <rect class="cls-2" x="375.11" y="310.82" width="13.48" height="13.81"/>
      <rect class="cls-2" x="361.63" y="517.96" width="13.48" height="13.81"/>
      <rect class="cls-2" x="361.63" y="504.15" width="13.48" height="13.81"/>
      <rect class="cls-2" x="361.63" y="490.34" width="13.48" height="13.81"/>
      <rect class="cls-2" x="361.63" y="476.53" width="13.48" height="13.81"/>
      <rect class="cls-2" x="361.63" y="462.72" width="13.48" height="13.81"/>
      <rect class="cls-2" x="361.63" y="448.92" width="13.48" height="13.8"/>
      <rect class="cls-2" x="361.63" y="435.11" width="13.48" height="13.81"/>
      <rect class="cls-2" x="361.63" y="421.3" width="13.48" height="13.81"/>
      <rect class="cls-2" x="361.63" y="352.25" width="13.48" height="13.81"/>
      <rect class="cls-2" x="361.63" y="338.44" width="13.48" height="13.81"/>
      <rect class="cls-2" x="361.63" y="324.63" width="13.48" height="13.81"/>
      <rect class="cls-2" x="361.63" y="310.82" width="13.48" height="13.81"/>
      <rect class="cls-2" x="348.15" y="504.15" width="13.48" height="13.81"/>
      <rect class="cls-2" x="348.15" y="490.34" width="13.48" height="13.81"/>
      <rect class="cls-2" x="348.15" y="476.53" width="13.48" height="13.81"/>
      <rect class="cls-2" x="348.15" y="462.72" width="13.48" height="13.81"/>
      <rect class="cls-2" x="348.15" y="448.92" width="13.48" height="13.8"/>
      <rect class="cls-2" x="348.15" y="435.11" width="13.48" height="13.81"/>
      <rect class="cls-2" x="348.15" y="379.87" width="13.48" height="13.81"/>
      <rect class="cls-2" x="348.15" y="366.06" width="13.48" height="13.81"/>
      <rect class="cls-2" x="348.15" y="352.25" width="13.48" height="13.81"/>
      <rect class="cls-2" x="348.15" y="338.44" width="13.48" height="13.81"/>
      <rect class="cls-2" x="348.15" y="324.63" width="13.48" height="13.81"/>
      <rect class="cls-2" x="348.15" y="310.82" width="13.48" height="13.81"/>
      <rect class="cls-2" x="334.67" y="476.53" width="13.48" height="13.81"/>
      <rect class="cls-2" x="334.67" y="462.72" width="13.48" height="13.81"/>
      <rect class="cls-2" x="334.67" y="407.49" width="13.48" height="13.81"/>
      <rect class="cls-2" x="334.67" y="393.68" width="13.48" height="13.81"/>
      <rect class="cls-2" x="334.67" y="379.87" width="13.48" height="13.81"/>
      <rect class="cls-2" x="334.67" y="366.06" width="13.48" height="13.81"/>
      <rect class="cls-2" x="334.67" y="352.25" width="13.48" height="13.81"/>
      <rect class="cls-2" x="334.67" y="338.44" width="13.48" height="13.81"/>
      <rect class="cls-2" x="334.67" y="324.63" width="13.48" height="13.81"/>
      <rect class="cls-2" x="334.67" y="310.82" width="13.48" height="13.81"/>
      <rect class="cls-2" x="321.19" y="435.11" width="13.48" height="13.81"/>
      <rect class="cls-2" x="321.19" y="421.3" width="13.48" height="13.81"/>
      <rect class="cls-2" x="321.19" y="407.49" width="13.48" height="13.81"/>
      <rect class="cls-2" x="321.19" y="393.68" width="13.48" height="13.81"/>
      <rect class="cls-2" x="321.19" y="379.87" width="13.48" height="13.81"/>
      <rect class="cls-2" x="321.19" y="366.06" width="13.48" height="13.81"/>
      <rect class="cls-2" x="321.19" y="352.25" width="13.48" height="13.81"/>
      <rect class="cls-2" x="307.71" y="462.72" width="13.48" height="13.81"/>
      <rect class="cls-2" x="307.71" y="448.92" width="13.48" height="13.8"/>
      <rect class="cls-2" x="307.71" y="435.11" width="13.48" height="13.81"/>
      <rect class="cls-2" x="307.71" y="421.3" width="13.48" height="13.81"/>
      <rect class="cls-2" x="307.71" y="407.49" width="13.48" height="13.81"/>
      <rect class="cls-2" x="307.71" y="393.68" width="13.48" height="13.81"/>
      <rect class="cls-2" x="307.71" y="379.87" width="13.48" height="13.81"/>
      <rect class="cls-2" x="307.71" y="310.82" width="13.48" height="13.81"/>
      <rect class="cls-2" x="294.23" y="490.34" width="13.48" height="13.81"/>
      <rect class="cls-2" x="294.23" y="476.53" width="13.48" height="13.81"/>
      <rect class="cls-2" x="294.23" y="462.72" width="13.48" height="13.81"/>
      <rect class="cls-2" x="294.23" y="448.92" width="13.48" height="13.8"/>
      <rect class="cls-2" x="294.23" y="435.11" width="13.48" height="13.81"/>
      <rect class="cls-2" x="294.23" y="421.3" width="13.48" height="13.81"/>
      <rect class="cls-2" x="294.23" y="407.49" width="13.48" height="13.81"/>
      <rect class="cls-2" x="294.23" y="393.68" width="13.48" height="13.81"/>
      <rect class="cls-2" x="294.23" y="338.44" width="13.48" height="13.81"/>
      <rect class="cls-2" x="294.23" y="324.63" width="13.48" height="13.81"/>
      <rect class="cls-2" x="294.23" y="310.82" width="13.48" height="13.81"/>
      <rect class="cls-2" x="280.75" y="517.96" width="13.48" height="13.81"/>
      <rect class="cls-2" x="280.75" y="504.15" width="13.48" height="13.81"/>
      <rect class="cls-2" x="280.75" y="490.34" width="13.48" height="13.81"/>
      <rect class="cls-2" x="280.75" y="476.53" width="13.48" height="13.81"/>
      <rect class="cls-2" x="280.75" y="462.72" width="13.48" height="13.81"/>
      <rect class="cls-2" x="280.75" y="448.92" width="13.48" height="13.8"/>
      <rect class="cls-2" x="280.75" y="435.11" width="13.48" height="13.81"/>
      <rect class="cls-2" x="280.75" y="421.3" width="13.48" height="13.81"/>
      <rect class="cls-2" x="280.75" y="366.06" width="13.48" height="13.81"/>
      <rect class="cls-2" x="280.75" y="352.25" width="13.48" height="13.81"/>
      <rect class="cls-2" x="280.75" y="338.44" width="13.48" height="13.81"/>
      <rect class="cls-2" x="280.75" y="324.63" width="13.48" height="13.81"/>
      <rect class="cls-2" x="280.75" y="310.82" width="13.48" height="13.81"/>
      <rect class="cls-2" x="267.27" y="545.58" width="13.48" height="13.81"/>
      <rect class="cls-2" x="267.27" y="531.77" width="13.48" height="13.81"/>
      <rect class="cls-2" x="267.27" y="517.96" width="13.48" height="13.81"/>
      <rect class="cls-2" x="267.27" y="504.15" width="13.48" height="13.81"/>
      <rect class="cls-2" x="267.27" y="490.34" width="13.48" height="13.81"/>
      <rect class="cls-2" x="267.27" y="476.53" width="13.48" height="13.81"/>
      <rect class="cls-2" x="267.27" y="462.72" width="13.48" height="13.81"/>
      <rect class="cls-2" x="267.27" y="448.92" width="13.48" height="13.8"/>
      <rect class="cls-2" x="267.27" y="366.06" width="13.48" height="13.81"/>
      <rect class="cls-2" x="267.27" y="352.25" width="13.48" height="13.81"/>
      <rect class="cls-2" x="267.27" y="338.44" width="13.48" height="13.81"/>
      <rect class="cls-2" x="267.27" y="324.63" width="13.48" height="13.81"/>
      <rect class="cls-2" x="267.27" y="310.82" width="13.48" height="13.81"/>
      <rect class="cls-2" x="253.79" y="573.2" width="13.48" height="13.81"/>
      <rect class="cls-2" x="253.79" y="559.39" width="13.48" height="13.81"/>
      <rect class="cls-2" x="253.79" y="545.58" width="13.48" height="13.81"/>
      <rect class="cls-2" x="253.79" y="531.77" width="13.48" height="13.81"/>
      <rect class="cls-2" x="253.79" y="517.96" width="13.48" height="13.81"/>
      <rect class="cls-2" x="253.79" y="504.15" width="13.48" height="13.81"/>
      <rect class="cls-2" x="253.79" y="490.34" width="13.48" height="13.81"/>
      <rect class="cls-2" x="253.79" y="338.44" width="13.48" height="13.81"/>
      <rect class="cls-2" x="253.79" y="324.63" width="13.48" height="13.81"/>
      <rect class="cls-2" x="253.79" y="310.82" width="13.48" height="13.81"/>
      <rect class="cls-2" x="240.31" y="587.01" width="13.48" height="13.81"/>
      <rect class="cls-2" x="240.31" y="573.2" width="13.48" height="13.81"/>
      <rect class="cls-2" x="240.31" y="559.39" width="13.48" height="13.81"/>
      <rect class="cls-2" x="240.31" y="545.58" width="13.48" height="13.81"/>
      <rect class="cls-2" x="240.31" y="531.77" width="13.48" height="13.81"/>
      <rect class="cls-2" x="240.31" y="517.96" width="13.48" height="13.81"/>
      <rect class="cls-2" x="240.31" y="310.82" width="13.48" height="13.81"/>
      <rect class="cls-2" x="226.83" y="587.01" width="13.48" height="13.81"/>
      <rect class="cls-2" x="226.83" y="573.2" width="13.48" height="13.81"/>
      <rect class="cls-2" x="226.83" y="559.39" width="13.48" height="13.81"/>
      <rect class="cls-2" x="226.83" y="545.58" width="13.48" height="13.81"/>
      <rect class="cls-2" x="226.83" y="531.77" width="13.48" height="13.81"/>
      <rect class="cls-2" x="226.83" y="517.96" width="13.48" height="13.81"/>
      <rect class="cls-2" x="213.35" y="573.2" width="13.48" height="13.81"/>
      <rect class="cls-2" x="213.35" y="559.39" width="13.48" height="13.81"/>
      <rect class="cls-2" x="213.35" y="545.58" width="13.48" height="13.81"/>
      <rect class="cls-2" x="213.35" y="531.77" width="13.48" height="13.81"/>
      <rect class="cls-2" x="213.35" y="517.96" width="13.48" height="13.81"/>
      <rect class="cls-2" x="213.35" y="504.15" width="13.48" height="13.81"/>
      <rect class="cls-2" x="213.35" y="490.34" width="13.48" height="13.81"/>
      <rect class="cls-2" x="199.87" y="545.58" width="13.48" height="13.81"/>
      <rect class="cls-2" x="199.87" y="531.77" width="13.48" height="13.81"/>
      <rect class="cls-2" x="199.87" y="517.96" width="13.48" height="13.81"/>
      <rect class="cls-2" x="199.87" y="504.15" width="13.48" height="13.81"/>
      <rect class="cls-2" x="199.87" y="490.34" width="13.48" height="13.81"/>
      <rect class="cls-2" x="199.87" y="476.53" width="13.48" height="13.81"/>
      <rect class="cls-2" x="199.87" y="462.72" width="13.48" height="13.81"/>
      <rect class="cls-2" x="199.87" y="448.92" width="13.48" height="13.8"/>
      <rect class="cls-2" x="186.39" y="517.96" width="13.48" height="13.81"/>
      <rect class="cls-2" x="186.39" y="504.15" width="13.48" height="13.81"/>
      <rect class="cls-2" x="186.39" y="490.34" width="13.48" height="13.81"/>
      <rect class="cls-2" x="186.39" y="476.53" width="13.48" height="13.81"/>
      <rect class="cls-2" x="186.39" y="462.72" width="13.48" height="13.81"/>
      <rect class="cls-2" x="186.39" y="448.92" width="13.48" height="13.8"/>
      <rect class="cls-2" x="186.39" y="435.11" width="13.48" height="13.81"/>
      <rect class="cls-2" x="186.39" y="421.3" width="13.48" height="13.81"/>
      <rect class="cls-2" x="172.91" y="490.34" width="13.48" height="13.81"/>
      <rect class="cls-2" x="172.91" y="476.53" width="13.48" height="13.81"/>
      <rect class="cls-2" x="172.91" y="462.72" width="13.48" height="13.81"/>
      <rect class="cls-2" x="172.91" y="448.92" width="13.48" height="13.8"/>
      <rect class="cls-2" x="172.91" y="435.11" width="13.48" height="13.81"/>
      <rect class="cls-2" x="172.91" y="421.3" width="13.48" height="13.81"/>
      <rect class="cls-2" x="172.91" y="407.49" width="13.48" height="13.81"/>
      <rect class="cls-2" x="172.91" y="393.68" width="13.48" height="13.81"/>
      <rect class="cls-2" x="159.43" y="462.72" width="13.48" height="13.81"/>
      <rect class="cls-2" x="159.43" y="448.92" width="13.48" height="13.8"/>
      <rect class="cls-2" x="159.43" y="435.11" width="13.48" height="13.81"/>
      <rect class="cls-2" x="159.43" y="421.3" width="13.48" height="13.81"/>
      <rect class="cls-2" x="159.43" y="407.49" width="13.48" height="13.81"/>
      <rect class="cls-2" x="159.43" y="393.68" width="13.48" height="13.81"/>
      <rect class="cls-2" x="159.43" y="379.87" width="13.48" height="13.81"/>
      <rect class="cls-2" x="145.95" y="435.11" width="13.48" height="13.81"/>
      <rect class="cls-2" x="145.95" y="421.3" width="13.48" height="13.81"/>
      <rect class="cls-2" x="145.95" y="407.49" width="13.48" height="13.81"/>
      <rect class="cls-2" x="145.95" y="393.68" width="13.48" height="13.81"/>
      <rect class="cls-2" x="145.95" y="379.87" width="13.48" height="13.81"/>
      <rect class="cls-2" x="145.95" y="366.06" width="13.48" height="13.81"/>
      <rect class="cls-2" x="145.95" y="352.25" width="13.48" height="13.81"/>
      <rect class="cls-2" x="132.47" y="407.49" width="13.48" height="13.81"/>
      <rect class="cls-2" x="132.47" y="393.68" width="13.48" height="13.81"/>
      <rect class="cls-2" x="132.47" y="379.87" width="13.48" height="13.81"/>
      <rect class="cls-2" x="132.47" y="366.06" width="13.48" height="13.81"/>
      <rect class="cls-2" x="132.47" y="352.25" width="13.48" height="13.81"/>
      <rect class="cls-2" x="132.47" y="338.44" width="13.48" height="13.81"/>
      <rect class="cls-2" x="132.47" y="324.63" width="13.48" height="13.81"/>
      <rect class="cls-2" x="132.47" y="310.82" width="13.48" height="13.81"/>
      <rect class="cls-2" x="118.99" y="379.87" width="13.48" height="13.81"/>
      <rect class="cls-2" x="118.99" y="366.06" width="13.48" height="13.81"/>
      <rect class="cls-2" x="118.99" y="352.25" width="13.48" height="13.81"/>
      <rect class="cls-2" x="118.99" y="338.44" width="13.48" height="13.81"/>
      <rect class="cls-2" x="118.99" y="324.63" width="13.48" height="13.81"/>
      <rect class="cls-2" x="118.99" y="310.82" width="13.48" height="13.81"/>
      <rect class="cls-2" x="105.51" y="352.25" width="13.48" height="13.81"/>
      <rect class="cls-2" x="105.51" y="338.44" width="13.48" height="13.81"/>
      <rect class="cls-2" x="105.51" y="324.63" width="13.48" height="13.81"/>
      <rect class="cls-2" x="105.51" y="310.82" width="13.48" height="13.81"/>
      <rect class="cls-2" x="92.03" y="324.63" width="13.48" height="13.81"/>
      <rect class="cls-2" x="92.03" y="310.82" width="13.48" height="13.81"/>
      <rect class="cls-2" x="78.55" y="310.82" width="13.48" height="13.81"/>
    </g>
  </g>
</svg>